<svg xmlns="http://www.w3.org/2000/svg"
shape-rendering="geometricPrecision"
width="4000" height="4000" viewBox="0 0 1024 1024">
  <metadata>null</metadata>

<path d="
M 153.792 720.074
C 156.228 717.898 158.05 714.649 159.943 711.998
C 162.756 708.058 165.872 704.366 168.53 700.311
C 169.209 700.406 169.914 701.281 170.449 701.729
C 171.943 702.981 173.374 704.257 175.015 705.324
C 180.125 708.648 185.402 711.226 191.251 712.972
C 199.11 715.317 209.085 716.9 216.79 713.197
C 223.918 709.771 227.327 700.687 221.121 694.586
C 216.241 689.79 208.329 688.478 201.966 686.802
C 187.018 682.864 167.345 679.168 160.934 663.02
C 160.156 661.061 159.418 659.019 159.041 656.939
C 158.213 652.376 158.163 647.675 158.869 643.096
C 159.428 639.476 160.589 635.861 162.344 632.64
C 175.348 608.766 208.307 608.29 230.63 617.295
C 234.644 618.914 238.522 620.823 242.248 623.023
C 243.783 623.929 245.632 624.78 246.885 626.069
C 246.148 627.731 244.949 629.094 243.945 630.603
C 241.49 634.292 239.168 638.08 236.747 641.794
C 235.759 643.31 234.316 645.044 233.708 646.722
C 232.022 644.409 227.774 642.788 225.275 641.558
C 217.168 637.568 206.428 634.274 197.309 635.983
C 190.927 637.18 184.176 640.756 185.19 648.38
C 185.718 652.352 188.554 654.907 191.979 656.578
C 197.732 659.386 204.347 660.75 210.524 662.309
C 221.154 664.991 234.232 668.556 242.266 676.458
C 247.663 681.767 250.405 689.406 250.864 696.846
C 251.052 699.895 251.193 703.302 250.555 706.313
C 249.38 711.858 247.835 717.474 244.436 722.127
C 232.59 738.344 209.107 740.789 190.774 737.546
C 186.236 736.743 181.689 735.783 177.393 734.074
C 170.911 731.495 164.785 728.686 159.217 724.435
C 157.855 723.394 156.57 722.257 155.205 721.222
C 154.683 720.826 154.046 720.67 153.792 720.074 Z"
opacity="1" fill="rgb(9,36,61)" fill-rule="evenodd" />

<path d="
M 260.425 704.589
C 261.359 700.99 262.398 697.672 264.416 694.494
C 267.312 689.932 272.12 686.882 277.067 684.955
C 286.573 681.252 297.626 681.353 307.654 682.113
C 311.201 682.382 314.825 682.959 318.381 682.93
C 318.491 680.453 318.446 677.775 317.673 675.399
C 313.576 662.805 297.176 663.663 287.008 666.836
C 284.133 667.733 281.379 669.206 278.785 670.708
C 278.216 671.037 276.482 672.525 275.872 672.322
C 273.109 665.737 269.326 659.454 265.635 653.357
C 268.006 652.422 270.244 651.023 272.604 650.018
C 278.571 647.476 284.886 645.481 291.325 644.583
C 297.766 643.684 304.495 643.413 310.98 643.999
C 314.545 644.322 318.389 645.232 321.771 646.396
C 324.593 647.366 327.304 648.625 329.769 650.32
C 341.329 658.267 343.271 671.536 343.356 684.583
C 343.427 695.554 343.321 706.529 343.331 717.5
C 343.338 723.909 343.111 730.367 343.723 736.742
C 339.903 736.346 335.843 736.729 331.998 736.709
C 327.838 736.688 323.592 736.25 319.443 736.466
C 318.987 735.496 319.161 734.183 319.087 733.12
C 318.934 730.899 318.923 728.611 318.613 726.41
C 316.024 728.535 313.97 731.238 311.187 733.22
C 306.787 736.353 301.654 738.039 296.328 738.729
C 279.795 740.872 261.736 730.278 260.168 712.694
C 259.931 710.033 259.941 707.222 260.425 704.589 Z
M 284.487 706.619
C 283.814 715.873 292.499 720.527 300.592 720.443
C 307.241 720.375 315.509 717.074 317.9 710.232
C 318.506 708.496 318.381 706.195 318.423 704.373
C 318.464 702.598 318.966 699.973 318.353 698.305
C 316.26 697.812 314.16 697.381 312.009 697.205
C 302.772 696.448 287.018 694.904 284.487 706.619 Z"
opacity="1" fill="rgb(8,36,61)" fill-rule="evenodd" />

<!-- Second lowercase 'a' (replacing capital 'A' with translation shift of 92px) -->
<g transform="translate(92, 0)">
  <path d="
  M 260.425 704.589
  C 261.359 700.99 262.398 697.672 264.416 694.494
  C 267.312 689.932 272.12 686.882 277.067 684.955
  C 286.573 681.252 297.626 681.353 307.654 682.113
  C 311.201 682.382 314.825 682.959 318.381 682.93
  C 318.491 680.453 318.446 677.775 317.673 675.399
  C 313.576 662.805 297.176 663.663 287.008 666.836
  C 284.133 667.733 281.379 669.206 278.785 670.708
  C 278.216 671.037 276.482 672.525 275.872 672.322
  C 273.109 665.737 269.326 659.454 265.635 653.357
  C 268.006 652.422 270.244 651.023 272.604 650.018
  C 278.571 647.476 284.886 645.481 291.325 644.583
  C 297.766 643.684 304.495 643.413 310.98 643.999
  C 314.545 644.322 318.389 645.232 321.771 646.396
  C 324.593 647.366 327.304 648.625 329.769 650.32
  C 341.329 658.267 343.271 671.536 343.356 684.583
  C 343.427 695.554 343.321 706.529 343.331 717.5
  C 343.338 723.909 343.111 730.367 343.723 736.742
  C 339.903 736.346 335.843 736.729 331.998 736.709
  C 327.838 736.688 323.592 736.25 319.443 736.466
  C 318.987 735.496 319.161 734.183 319.087 733.12
  C 318.934 730.899 318.923 728.611 318.613 726.41
  C 316.024 728.535 313.97 731.238 311.187 733.22
  C 306.787 736.353 301.654 738.039 296.328 738.729
  C 279.795 740.872 261.736 730.278 260.168 712.694
  C 259.931 710.033 259.941 707.222 260.425 704.589 Z
  M 284.487 706.619
  C 283.814 715.873 292.499 720.527 300.592 720.443
  C 307.241 720.375 315.509 717.074 317.9 710.232
  C 318.506 708.496 318.381 706.195 318.423 704.373
  C 318.464 702.598 318.966 699.973 318.353 698.305
  C 316.26 697.812 314.16 697.381 312.009 697.205
  C 302.772 696.448 287.018 694.904 284.487 706.619 Z"
  opacity="1" fill="rgb(8,36,61)" fill-rule="evenodd" />
</g>

<path d="
M 353.888 321.383
C 355.596 323.424 358.714 324.511 360.996 325.811
C 366.625 329.017 372.284 332.167 377.968 335.278
C 396.69 345.523 415.525 355.62 434.222 365.88
C 434.198 366.582 434.226 366.228 434.136 366.942
C 433.562 371.394 433.922 376.025 433.893 380.506
C 433.839 388.839 433.835 397.171 433.846 405.504
C 433.875 429.671 433.796 453.839 433.893 478.006
C 433.946 491.003 433.958 504.007 433.89 517.005
C 433.869 521.003 433.889 525.002 433.844 529
C 433.818 531.324 433.547 533.97 434.094 536.241
C 435.197 536.528 437.929 534.009 438.983 533.381
C 443.524 530.675 448.27 528.175 452.923 525.661
C 466.911 518.101 480.811 510.307 494.653 502.487
C 498.526 500.299 502.381 498.073 506.318 496.002
C 508.087 495.072 509.938 493.561 511.926 493.205
C 512.807 494.175 511.937 497.209 511.974 498.486
C 512.129 503.824 512.135 509.155 512.156 514.499
C 512.226 532.387 512.365 550.288 511.853 568.17
C 511.78 570.694 511.596 573.429 511.964 575.934
C 512.15 577.194 513.566 578.093 513.42 579.362
C 512.442 580.248 511.611 579.359 510.65 578.808
C 508.488 577.568 506.189 576.539 504.005 575.329
C 494.354 569.983 484.561 564.873 474.87 559.6
C 434.229 537.485 393.991 514.626 353.331 492.54
C 352.454 488.412 353.266 483.243 353.264 479.004
C 353.26 469.671 353.222 460.338 353.206 451.005
C 353.155 421.171 353.117 391.339 353.167 361.505
C 353.185 351.337 353.166 341.169 353.178 331.001
C 353.181 328.709 353.217 326.416 353.177 324.125
C 353.158 322.971 352.682 321.742 353.888 321.383 Z"
opacity="1" fill="rgb(2,41,72)" fill-rule="evenodd" />

<path d="
M 353.888 321.383
C 357.969 318.754 362.561 316.806 366.811 314.441
C 381.032 306.524 395.282 298.731 409.663 291.106
C 427.067 281.878 444.122 271.966 461.354 262.424
C 473.483 255.707 485.557 248.7 497.923 242.424
C 501 240.862 504.069 239.269 507.118 237.654
C 508.716 236.807 510.562 235.318 512.365 235.046
C 511.792 264.221 511.445 293.878 512.78 322.886
C 512.816 323.098 512.853 323.31 512.89 323.522
C 512.286 323.267 512.598 323.317 511.955 323.366
C 505.521 326.133 499.318 329.976 493.182 333.357
C 482.385 339.305 471.634 345.356 460.79 351.218
C 454.538 354.598 448.392 358.171 442.16 361.59
C 439.741 362.917 436.216 364.034 434.222 365.88
C 415.525 355.62 396.69 345.523 377.968 335.278
C 372.284 332.167 366.625 329.017 360.996 325.811
C 358.714 324.511 355.596 323.424 353.888 321.383 Z"
opacity="1" fill="rgb(22,128,202)" fill-rule="evenodd" />

<path d="
M 434.136 366.942
C 435.648 366.157 437.651 367.998 439.007 368.721
C 443.595 371.165 448.128 373.697 452.656 376.248
C 467.749 384.752 483.126 392.81 498.451 400.881
C 502.146 402.826 505.808 404.864 509.439 406.925
C 510.054 407.274 512.413 409.262 512.743 409.179
C 511.912 411.951 512.329 415.234 512.307 418.107
C 512.261 424.071 512.255 430.036 512.248 436
C 512.225 454.964 512.022 473.955 512.398 492.915
C 511.99 493.054 512.132 492.935 511.926 493.205
C 509.938 493.561 508.087 495.072 506.318 496.002
C 502.381 498.073 498.526 500.299 494.653 502.487
C 480.811 510.307 466.911 518.101 452.923 525.661
C 448.27 528.175 443.524 530.675 438.983 533.381
C 437.929 534.009 435.197 536.528 434.094 536.241
C 433.547 533.97 433.818 531.324 433.844 529
C 433.889 525.002 433.869 521.003 433.89 517.005
C 433.958 504.007 433.946 491.003 433.893 478.006
C 433.796 453.839 433.875 429.671 433.846 405.504
C 433.835 397.171 433.839 388.839 433.893 380.506
C 433.922 376.025 433.562 371.394 434.136 366.942 Z"
opacity="1" fill="rgb(51,177,231)" fill-rule="evenodd" />

<!-- Second S (shifted left by 30px with translate) -->
<g transform="translate(-30, 0)">
  <path d="
  M 477.442 719.522
  C 480.151 715.446 483.455 711.507 486.455 707.619
  C 488.328 705.192 489.918 702.452 491.971 700.182
  C 495.288 702.463 498.15 705.242 501.666 707.316
  C 510.768 712.686 521.846 716.021 532.488 715.233
  C 536.248 714.954 540.147 713.876 543.083 711.395
  C 547.691 707.499 548.726 700.481 545.119 695.595
  C 543.67 693.631 541.332 692.446 539.188 691.402
  C 534.91 689.32 530.321 688.147 525.763 686.847
  C 511.661 682.825 493.988 680.148 485.895 666.286
  C 484.741 664.311 483.916 662.094 483.281 659.902
  C 478.873 644.709 484.319 628.787 497.266 619.683
  C 501.308 616.84 506.184 614.898 510.952 613.677
  C 525.251 610.015 540.501 612.11 554.138 617.254
  C 559.918 619.435 565.699 622.31 570.563 626.177
  C 568.126 631.182 564.328 635.751 561.282 640.43
  C 560.221 642.06 559.006 645.287 557.459 646.379
  C 554.715 645.081 552.263 643.009 549.502 641.649
  C 540.722 637.324 530.293 634.475 520.462 635.957
  C 517.589 636.39 514.61 637.351 512.416 639.328
  C 508.522 642.838 507.575 649.02 511.128 653.155
  C 515.915 658.726 524.73 659.631 531.382 661.474
  C 546.168 665.569 564.787 669.479 571.434 685.155
  C 572.563 687.818 573.334 690.596 573.751 693.457
  C 574.416 698.026 574.379 702.826 573.493 707.366
  C 572.844 710.684 571.712 713.846 570.219 716.868
  C 559.78 738.005 532.671 741.111 511.929 737.115
  C 507.659 736.293 503.47 735.111 499.427 733.496
  C 493.507 731.133 488.069 728.323 482.832 724.69
  C 481.106 723.492 478.047 721.91 477.094 720.01
  C 477.21 719.847 477.326 719.685 477.442 719.522 Z"
  opacity="1" fill="rgb(9,35,61)" fill-rule="evenodd" />
</g>

<path d="
M 511.955 323.366
C 512.81 324.875 512.275 327.851 512.292 329.565
C 512.344 334.875 512.291 340.188 512.297 345.499
C 512.315 359.662 512.454 373.829 512.393 387.992
C 512.374 392.478 512.36 396.964 512.353 401.45
C 512.35 403.66 511.976 406.323 512.536 408.463
C 512.941 408.931 513.575 408.957 514.085 409.298
C 513.281 409.103 513.726 409.163 512.743 409.179
C 512.413 409.262 510.054 407.274 509.439 406.925
C 505.808 404.864 502.146 402.826 498.451 400.881
C 483.126 392.81 467.749 384.752 452.656 376.248
C 448.128 373.697 443.595 371.165 439.007 368.721
C 437.651 367.998 435.648 366.157 434.136 366.942
C 434.226 366.228 434.198 366.582 434.222 365.88
C 436.216 364.034 439.741 362.917 442.16 361.59
C 448.392 358.171 454.538 354.598 460.79 351.218
C 471.634 345.356 482.385 339.305 493.182 333.357
C 499.318 329.976 505.521 326.133 511.955 323.366 Z"
opacity="1" fill="rgb(166,230,250)" fill-rule="evenodd" />

<path d="
M 511.955 323.366
C 512.598 323.317 512.286 323.267 512.89 323.522
C 521.146 329.132 530.571 333.601 539.418 338.225
C 549.772 343.636 559.987 349.462 570.202 355.139
C 575.109 357.866 580.003 360.699 585.034 363.192
C 586.455 363.897 589.953 364.939 590.604 366.422
C 590.533 367.61 590.539 368.804 590.512 369.994
C 589.328 368.665 587.153 368.246 585.461 368.842
C 581.842 370.117 578.545 372.329 575.242 374.232
C 561.001 382.438 546.513 390.207 532.185 398.264
C 528.041 400.594 523.833 402.802 519.687 405.126
C 518.727 405.664 515.84 406.983 516.289 408.277
C 516.403 408.761 517.335 410.456 516.475 410.53
C 515.681 410.073 514.972 409.565 514.085 409.298
C 513.575 408.957 512.941 408.931 512.536 408.463
C 511.976 406.323 512.35 403.66 512.353 401.45
C 512.36 396.964 512.374 392.478 512.393 387.992
C 512.454 373.829 512.315 359.662 512.297 345.499
C 512.291 340.188 512.344 334.875 512.292 329.565
C 512.275 327.851 512.81 324.875 511.955 323.366 Z"
opacity="1" fill="rgb(111,210,240)" fill-rule="evenodd" />

<path d="
M 512.398 492.915
C 518.91 489.823 525.083 485.668 531.424 482.214
C 542.834 475.998 554.368 469.935 565.65 463.494
C 573.601 458.955 581.584 454.131 589.792 450.094
C 591.308 449.629 590.622 446.99 590.621 445.508
C 590.618 440.673 590.616 435.839 590.598 431.005
C 590.524 410.679 591.07 390.31 590.512 369.994
C 590.539 368.804 590.533 367.61 590.604 366.422
C 591.647 364.942 594.241 364.152 595.836 363.321
C 599.59 361.365 603.353 359.344 607.009 357.21
C 622.017 348.448 637.567 340.573 652.748 332.114
C 657.316 329.568 662.065 327.308 666.576 324.67
C 667.567 324.09 670.23 322.001 671.391 322.452
C 670.494 345.576 671.494 368.867 671.419 392.013
C 671.357 411.347 671.517 430.681 671.444 450.014
C 671.39 464.149 670.983 478.351 671.33 492.479
C 671.043 493.054 669.302 493.59 668.689 493.937
C 666.132 495.387 663.543 496.791 660.966 498.208
C 651.159 503.6 641.239 508.836 631.508 514.361
C 606.904 528.329 581.8 541.463 557.072 555.22
C 546.837 560.913 536.583 566.562 526.328 572.218
C 522.137 574.53 517.909 577.697 513.42 579.362
C 513.566 578.093 512.15 577.194 511.964 575.934
C 511.596 573.429 511.78 570.694 511.853 568.17
C 512.365 550.288 512.226 532.387 512.156 514.499
C 512.135 509.155 512.129 503.824 511.974 498.486
C 511.937 497.209 512.807 494.175 511.926 493.205
C 512.132 492.935 511.99 493.054 512.398 492.915 Z"
opacity="1" fill="rgb(2,42,76)" fill-rule="evenodd" />

<path d="
M 512.365 235.046
C 516.487 236.083 520.518 239.156 524.233 241.189
C 532.211 245.557 540.253 249.787 548.173 254.261
C 558.771 260.247 569.543 265.989 580.228 271.824
C 584.355 274.077 589.454 275.894 593.123 278.838
C 591.522 277.974 588.935 280.1 587.547 280.876
C 582.743 283.563 578.012 286.376 573.199 289.05
C 560.186 296.279 547.237 303.619 534.274 310.935
C 527.16 314.95 519.733 318.633 512.78 322.886
C 511.445 293.878 511.792 264.221 512.365 235.046 Z"
opacity="1" fill="rgb(22,128,202)" fill-rule="evenodd" />

<path d="
M 512.743 409.179
C 513.726 409.163 513.281 409.103 514.085 409.298
C 514.972 409.565 515.681 410.073 516.475 410.53
C 521.709 413.907 527.508 416.606 532.984 419.573
C 543.785 425.424 554.542 431.364 565.481 436.955
C 570.938 439.744 576.324 442.687 581.763 445.513
C 583.913 446.63 586.099 447.685 588.235 448.829
C 588.555 449 590.281 449.694 589.792 450.094
C 581.584 454.131 573.601 458.955 565.65 463.494
C 554.368 469.935 542.834 475.998 531.424 482.214
C 525.083 485.668 518.91 489.823 512.398 492.915
C 512.022 473.955 512.225 454.964 512.248 436
C 512.255 430.036 512.261 424.071 512.307 418.107
C 512.329 415.234 511.912 411.951 512.743 409.179 Z"
opacity="1" fill="rgb(30,124,164)" fill-rule="evenodd" />

<path d="
M 512.78 322.886
C 519.733 318.633 527.16 314.95 534.274 310.935
C 547.237 303.619 560.186 296.279 573.199 289.05
C 578.012 286.376 582.743 283.563 587.547 280.876
C 588.935 280.1 591.522 277.974 593.123 278.838
C 601.903 284.038 610.95 288.708 619.883 293.635
C 630.782 299.646 641.6 305.805 652.555 311.712
C 657.361 314.303 662.088 317.123 667.008 319.491
C 668.082 320.008 671.392 321.099 671.391 322.452
C 670.23 322.001 667.567 324.09 666.576 324.67
C 662.065 327.308 657.316 329.568 652.748 332.114
C 637.567 340.573 622.017 348.448 607.009 357.21
C 603.353 359.344 599.59 361.365 595.836 363.321
C 594.241 364.152 591.647 364.942 590.604 366.422
C 589.953 364.939 586.455 363.897 585.034 363.192
C 580.003 360.699 575.109 357.866 570.202 355.139
C 559.987 349.462 549.772 343.636 539.418 338.225
C 530.571 333.601 521.146 329.132 512.89 323.522
C 512.853 323.31 512.816 323.098 512.78 322.886 Z"
opacity="1" fill="rgb(6,83,141)" fill-rule="evenodd" />

<path d="
M 590.512 369.994
C 591.07 390.31 590.524 410.679 590.598 431.005
C 590.616 435.839 590.616 440.673 590.621 445.508
C 590.622 446.99 591.308 449.629 589.792 450.094
C 590.281 449.694 588.555 449 588.235 448.829
C 586.099 447.685 583.913 446.63 581.763 445.513
C 576.324 442.687 570.938 439.744 565.481 436.955
C 554.542 431.364 543.785 425.424 532.984 419.573
C 527.508 416.606 521.709 413.907 516.475 410.53
C 517.335 410.456 516.403 408.761 516.289 408.277
C 515.84 406.983 518.727 405.664 519.687 405.126
C 523.833 402.802 528.041 400.594 532.185 398.264
C 546.513 390.207 561.001 382.438 575.242 374.232
C 578.545 372.329 581.842 370.117 585.461 368.842
C 587.153 368.246 589.328 368.665 590.512 369.994 Z"
opacity="1" fill="rgb(99,202,225)" fill-rule="evenodd" />

<!-- Rest of Pro text paths (shifted left by 30px with translate) -->
<g transform="translate(-30, 0)">
  <path d="
  M 607.483 634.118
  C 607.911 629.47 607.577 624.667 607.607 620
  C 607.619 618.179 607.238 616.012 607.72 614.256
  C 620.957 614.564 634.248 614.228 647.493 614.26
  C 652.676 614.273 657.986 613.974 663.149 614.489
  C 672.131 615.386 680.905 618.088 688.446 623.134
  C 704.616 633.954 708.458 658.82 700.485 675.69
  C 696.768 683.556 690.637 689.558 683.112 693.775
  C 668.524 701.951 650.151 698.394 634.236 699.257
  C 633.313 703.18 633.98 707.986 633.917 712.013
  C 633.791 720.162 633.329 728.552 633.815 736.683
  C 627.713 736.806 621.608 736.674 615.507 736.602
  C 612.861 736.571 609.949 736.938 607.339 736.597
  C 607.944 727.83 607.333 718.796 607.357 710
  C 607.399 694.093 607.57 678.178 607.562 662.275
  C 607.557 652.903 607.162 643.485 607.483 634.118 Z
  M 634.001 639.636
  C 633.19 651.647 634.552 663.79 634.107 675.798
  C 640.622 675.352 647.32 675.797 653.856 675.792
  C 659.403 675.788 664.791 675.701 669.597 672.556
  C 680.007 665.744 679.709 647.413 668.794 641.178
  C 664.883 638.943 660.863 638.913 656.517 638.584
  C 652.2 638.256 647.836 638.387 643.508 638.402
  C 640.398 638.412 637.199 638.191 634.111 638.561
  C 634.023 639.337 634.058 638.978 634.001 639.636 Z"
  opacity="1" fill="rgb(9,36,61)" fill-rule="evenodd" />
  <path d="
  M 714.912 646.089
  C 714.944 645.845 714.975 645.601 715.007 645.357
  C 721.119 645.806 727.379 645.353 733.509 645.383
  C 735.69 645.394 738.26 645.011 740.388 645.461
  C 740.204 649.463 740.268 653.492 740.329 657.497
  C 740.356 659.331 740.097 661.405 740.537 663.182
  C 741.231 662.667 741.48 661.459 741.914 660.723
  C 742.955 658.961 744.147 657.315 745.478 655.762
  C 751.081 649.221 757.852 644.129 766.736 643.832
  C 768.09 643.787 769.639 643.561 770.964 643.87
  C 770.166 652.702 770.558 662.047 770.773 670.912
  C 769.115 671.082 767.287 670.389 765.609 670.285
  C 762.136 670.07 758.346 670.518 755.077 671.721
  C 753.099 672.448 751.231 673.463 749.54 674.718
  C 739.994 681.808 740.481 692.896 740.426 703.589
  C 740.392 710.064 740.359 716.536 740.368 723.012
  C 740.373 726.345 740.37 729.678 740.367 733.011
  C 740.366 733.931 740.813 735.825 740.402 736.629
  C 731.961 736.694 723.201 735.938 714.803 736.644
  C 715.137 715.277 714.778 693.875 714.776 672.504
  C 714.775 663.721 714.507 654.863 714.912 646.089 Z"
  opacity="1" fill="rgb(9,36,62)" fill-rule="evenodd" />
  <path d="
  M 772.944 685.604
  C 773.468 680.301 774.975 675.077 777.312 670.295
  C 787.862 648.706 813.201 638.762 835.938 645.588
  C 842.827 647.657 848.925 651.496 854.234 656.273
  C 858.463 660.077 861.863 664.933 864.229 670.094
  C 868.118 678.579 869.086 687.891 868.187 697.079
  C 867.698 702.082 865.991 706.759 863.919 711.299
  C 861.671 716.226 858.54 721.005 854.724 724.878
  C 836.308 743.568 803.871 743.134 785.657 724.525
  C 781.854 720.639 778.65 715.917 776.461 710.937
  C 772.957 702.963 772.095 694.215 772.944 685.604 Z
  M 798.475 687.113
  C 797.392 695.612 799.775 705.198 806.512 710.891
  C 814.114 717.315 826.324 717.64 834.101 711.339
  C 838.918 707.437 841.646 701.552 842.419 695.487
  C 843.578 686.402 840.93 676.507 833.488 670.672
  C 826.13 664.901 814.276 664.874 807.023 670.79
  C 802.225 674.704 799.246 681.063 798.475 687.113 Z"
  opacity="1" fill="rgb(9,36,61)" fill-rule="evenodd" />
</g>

</svg>