<svg xmlns="http://www.w3.org/2000/svg" shape-rendering="geometricPrecision" viewBox="350 230 325 355" width="1024" height="1024">
  <path d="
M 353.888 321.383
C 355.596 323.424 358.714 324.511 360.996 325.811
C 366.625 329.017 372.284 332.167 377.968 335.278
C 396.69 345.523 415.525 355.62 434.222 365.88
C 434.198 366.582 434.226 366.228 434.136 366.942
C 433.562 371.394 433.922 376.025 433.893 380.506
C 433.839 388.839 433.835 397.171 433.846 405.504
C 433.875 429.671 433.796 453.839 433.893 478.006
C 433.946 491.003 433.958 504.007 433.89 517.005
C 433.869 521.003 433.889 525.002 433.844 529
C 433.818 531.324 433.547 533.97 434.094 536.241
C 435.197 536.528 437.929 534.009 438.983 533.381
C 443.524 530.675 448.27 528.175 452.923 525.661
C 466.911 518.101 480.811 510.307 494.653 502.487
C 498.526 500.299 502.381 498.073 506.318 496.002
C 508.087 495.072 509.938 493.561 511.926 493.205
C 512.807 494.175 511.937 497.209 511.974 498.486
C 512.129 503.824 512.135 509.155 512.156 514.499
C 512.226 532.387 512.365 550.288 511.853 568.17
C 511.78 570.694 511.596 573.429 511.964 575.934
C 512.15 577.194 513.566 578.093 513.42 579.362
C 512.442 580.248 511.611 579.359 510.65 578.808
C 508.488 577.568 506.189 576.539 504.005 575.329
C 494.354 569.983 484.561 564.873 474.87 559.6
C 434.229 537.485 393.991 514.626 353.331 492.54
C 352.454 488.412 353.266 483.243 353.264 479.004
C 353.26 469.671 353.222 460.338 353.206 451.005
C 353.155 421.171 353.117 391.339 353.167 361.505
C 353.185 351.337 353.166 341.169 353.178 331.001
C 353.181 328.709 353.217 326.416 353.177 324.125
C 353.158 322.971 352.682 321.742 353.888 321.383 Z"
opacity="1" fill="rgb(2,41,72)" fill-rule="evenodd" />
  <path d="
M 353.888 321.383
C 357.969 318.754 362.561 316.806 366.811 314.441
C 381.032 306.524 395.282 298.731 409.663 291.106
C 427.067 281.878 444.122 271.966 461.354 262.424
C 473.483 255.707 485.557 248.7 497.923 242.424
C 501 240.862 504.069 239.269 507.118 237.654
C 508.716 236.807 510.562 235.318 512.365 235.046
C 511.792 264.221 511.445 293.878 512.78 322.886
C 512.816 323.098 512.853 323.31 512.89 323.522
C 512.286 323.267 512.598 323.317 511.955 323.366
C 505.521 326.133 499.318 329.976 493.182 333.357
C 482.385 339.305 471.634 345.356 460.79 351.218
C 454.538 354.598 448.392 358.171 442.16 361.59
C 439.741 362.917 436.216 364.034 434.222 365.88
C 415.525 355.62 396.69 345.523 377.968 335.278
C 372.284 332.167 366.625 329.017 360.996 325.811
C 358.714 324.511 355.596 323.424 353.888 321.383 Z"
opacity="1" fill="rgb(22,128,202)" fill-rule="evenodd" />
  <path d="
M 434.136 366.942
C 435.648 366.157 437.651 367.998 439.007 368.721
C 443.595 371.165 448.128 373.697 452.656 376.248
C 467.749 384.752 483.126 392.81 498.451 400.881
C 502.146 402.826 505.808 404.864 509.439 406.925
C 510.054 407.274 512.413 409.262 512.743 409.179
C 511.912 411.951 512.329 415.234 512.307 418.107
C 512.261 424.071 512.255 430.036 512.248 436
C 512.225 454.964 512.022 473.955 512.398 492.915
C 511.99 493.054 512.132 492.935 511.926 493.205
C 509.938 493.561 508.087 495.072 506.318 496.002
C 502.381 498.073 498.526 500.299 494.653 502.487
C 480.811 510.307 466.911 518.101 452.923 525.661
C 448.27 528.175 443.524 530.675 438.983 533.381
C 437.929 534.009 435.197 536.528 434.094 536.241
C 433.547 533.97 433.818 531.324 433.844 529
C 433.889 525.002 433.869 521.003 433.89 517.005
C 433.958 504.007 433.946 491.003 433.893 478.006
C 433.796 453.839 433.875 429.671 433.846 405.504
C 433.835 397.171 433.839 388.839 433.893 380.506
C 433.922 376.025 433.562 371.394 434.136 366.942 Z"
opacity="1" fill="rgb(51,177,231)" fill-rule="evenodd" />
  <path d="
M 511.955 323.366
C 512.81 324.875 512.275 327.851 512.292 329.565
C 512.344 334.875 512.291 340.188 512.297 345.499
C 512.315 359.662 512.454 373.829 512.393 387.992
C 512.374 392.478 512.36 396.964 512.353 401.45
C 512.35 403.66 511.976 406.323 512.536 408.463
C 512.941 408.931 513.575 408.957 514.085 409.298
C 513.281 409.103 513.726 409.163 512.743 409.179
C 512.413 409.262 510.054 407.274 509.439 406.925
C 505.808 404.864 502.146 402.826 498.451 400.881
C 483.126 392.81 467.749 384.752 452.656 376.248
C 448.128 373.697 443.595 371.165 439.007 368.721
C 437.651 367.998 435.648 366.157 434.136 366.942
C 434.226 366.228 434.198 366.582 434.222 365.88
C 436.216 364.034 439.741 362.917 442.16 361.59
C 448.392 358.171 454.538 354.598 460.79 351.218
C 471.634 345.356 482.385 339.305 493.182 333.357
C 499.318 329.976 505.521 326.133 511.955 323.366 Z"
opacity="1" fill="rgb(166,230,250)" fill-rule="evenodd" />
  <path d="
M 511.955 323.366
C 512.598 323.317 512.286 323.267 512.89 323.522
C 521.146 329.132 530.571 333.601 539.418 338.225
C 549.772 343.636 559.987 349.462 570.202 355.139
C 575.109 357.866 580.003 360.699 585.034 363.192
C 586.455 363.897 589.953 364.939 590.604 366.422
C 590.533 367.61 590.539 368.804 590.512 369.994
C 589.328 368.665 587.153 368.246 585.461 368.842
C 581.842 370.117 578.545 372.329 575.242 374.232
C 561.001 382.438 546.513 390.207 532.185 398.264
C 528.041 400.594 523.833 402.802 519.687 405.126
C 518.727 405.664 515.84 406.983 516.289 408.277
C 516.403 408.761 517.335 410.456 516.475 410.53
C 515.681 410.073 514.972 409.565 514.085 409.298
C 513.575 408.957 512.941 408.931 512.536 408.463
C 511.976 406.323 512.35 403.66 512.353 401.45
C 512.36 396.964 512.374 392.478 512.393 387.992
C 512.454 373.829 512.315 359.662 512.297 345.499
C 512.291 340.188 512.344 334.875 512.292 329.565
C 512.275 327.851 512.81 324.875 511.955 323.366 Z"
opacity="1" fill="rgb(111,210,240)" fill-rule="evenodd" />
  <path d="
M 512.398 492.915
C 518.91 489.823 525.083 485.668 531.424 482.214
C 542.834 475.998 554.368 469.935 565.65 463.494
C 573.601 458.955 581.584 454.131 589.792 450.094
C 591.308 449.629 590.622 446.99 590.621 445.508
C 590.618 440.673 590.616 435.839 590.598 431.005
C 590.524 410.679 591.07 390.31 590.512 369.994
C 590.539 368.804 590.533 367.61 590.604 366.422
C 591.647 364.942 594.241 364.152 595.836 363.321
C 599.59 361.365 603.353 359.344 607.009 357.21
C 622.017 348.448 637.567 340.573 652.748 332.114
C 657.316 329.568 662.065 327.308 666.576 324.67
C 667.567 324.09 670.23 322.001 671.391 322.452
C 670.494 345.576 671.494 368.867 671.419 392.013
C 671.357 411.347 671.517 430.681 671.444 450.014
C 671.39 464.149 670.983 478.351 671.33 492.479
C 671.043 493.054 669.302 493.59 668.689 493.937
C 666.132 495.387 663.543 496.791 660.966 498.208
C 651.159 503.6 641.239 508.836 631.508 514.361
C 606.904 528.329 581.8 541.463 557.072 555.22
C 546.837 560.913 536.583 566.562 526.328 572.218
C 522.137 574.53 517.909 577.697 513.42 579.362
C 513.566 578.093 512.15 577.194 511.964 575.934
C 511.596 573.429 511.78 570.694 511.853 568.17
C 512.365 550.288 512.226 532.387 512.156 514.499
C 512.135 509.155 512.129 503.824 511.974 498.486
C 511.937 497.209 512.807 494.175 511.926 493.205
C 512.132 492.935 511.99 493.054 512.398 492.915 Z"
opacity="1" fill="rgb(2,42,76)" fill-rule="evenodd" />
  <path d="
M 512.365 235.046
C 516.487 236.083 520.518 239.156 524.233 241.189
C 532.211 245.557 540.253 249.787 548.173 254.261
C 558.771 260.247 569.543 265.989 580.228 271.824
C 584.355 274.077 589.454 275.894 593.123 278.838
C 591.522 277.974 588.935 280.1 587.547 280.876
C 582.743 283.563 578.012 286.376 573.199 289.05
C 560.186 296.279 547.237 303.619 534.274 310.935
C 527.16 314.95 519.733 318.633 512.78 322.886
C 511.445 293.878 511.792 264.221 512.365 235.046 Z"
opacity="1" fill="rgb(22,128,202)" fill-rule="evenodd" />
  <path d="
M 512.743 409.179
C 513.726 409.163 513.281 409.103 514.085 409.298
C 514.972 409.565 515.681 410.073 516.475 410.53
C 521.709 413.907 527.508 416.606 532.984 419.573
C 543.785 425.424 554.542 431.364 565.481 436.955
C 570.938 439.744 576.324 442.687 581.763 445.513
C 583.913 446.63 586.099 447.685 588.235 448.829
C 588.555 449 590.281 449.694 589.792 450.094
C 581.584 454.131 573.601 458.955 565.65 463.494
C 554.368 469.935 542.834 475.998 531.424 482.214
C 525.083 485.668 518.91 489.823 512.398 492.915
C 512.022 473.955 512.225 454.964 512.248 436
C 512.255 430.036 512.261 424.071 512.307 418.107
C 512.329 415.234 511.912 411.951 512.743 409.179 Z"
opacity="1" fill="rgb(30,124,164)" fill-rule="evenodd" />
  <path d="
M 512.78 322.886
C 519.733 318.633 527.16 314.95 534.274 310.935
C 547.237 303.619 560.186 296.279 573.199 289.05
C 578.012 286.376 582.743 283.563 587.547 280.876
C 588.935 280.1 591.522 277.974 593.123 278.838
C 601.903 284.038 610.95 288.708 619.883 293.635
C 630.782 299.646 641.6 305.805 652.555 311.712
C 657.361 314.303 662.088 317.123 667.008 319.491
C 668.082 320.008 671.392 321.099 671.391 322.452
C 670.23 322.001 667.567 324.09 666.576 324.67
C 662.065 327.308 657.316 329.568 652.748 332.114
C 637.567 340.573 622.017 348.448 607.009 357.21
C 603.353 359.344 599.59 361.365 595.836 363.321
C 594.241 364.152 591.647 364.942 590.604 366.422
C 589.953 364.939 586.455 363.897 585.034 363.192
C 580.003 360.699 575.109 357.866 570.202 355.139
C 559.987 349.462 549.772 343.636 539.418 338.225
C 530.571 333.601 521.146 329.132 512.89 323.522
C 512.853 323.31 512.816 323.098 512.78 322.886 Z"
opacity="1" fill="rgb(6,83,141)" fill-rule="evenodd" />
  <path d="
M 590.512 369.994
C 591.07 390.31 590.524 410.679 590.598 431.005
C 590.616 435.839 590.618 440.673 590.621 445.508
C 590.622 446.99 591.308 449.629 589.792 450.094
C 590.281 449.694 588.555 449 588.235 448.829
C 586.099 447.685 583.913 446.63 581.763 445.513
C 576.324 442.687 570.938 439.744 565.481 436.955
C 554.542 431.364 543.785 425.424 532.984 419.573
C 527.508 416.606 521.709 413.907 516.475 410.53
C 517.335 410.456 516.403 408.761 516.289 408.277
C 515.84 406.983 518.727 405.664 519.687 405.126
C 523.833 402.802 528.041 400.594 532.185 398.264
C 546.513 390.207 561.001 382.438 575.242 374.232
C 578.545 372.329 581.842 370.117 585.461 368.842
C 587.153 368.246 589.328 368.665 590.512 369.994 Z"
opacity="1" fill="rgb(99,202,225)" fill-rule="evenodd" />
</svg>
